<svg width="37" height="36" viewBox="0 0 37 36" fill="none" xmlns="http://www.w3.org/2000/svg">
<path d="M30.4522 16.5349C30.4522 25.8921 18.5 33 18.5 33C18.5 33 6.5 25.8921 6.5 16.5349C6.5 13.3431 7.76428 10.2819 10.0147 8.02496C12.2652 5.76797 15.3174 4.5 18.5 4.5C21.6826 4.5 24.7348 5.76797 26.9853 8.02496C29.2357 10.2819 30.5 13.3431 30.5 16.5349H30.4522Z" fill="#000" stroke="#000" stroke-width="1.4" stroke-linecap="round" stroke-linejoin="round"/>
<path d="M18.5 21C19.39 21 20.26 20.7361 21.0001 20.2416C21.7401 19.7471 22.3169 19.0443 22.6575 18.2221C22.9981 17.3998 23.0872 16.495 22.9135 15.6221C22.7399 14.7492 22.3113 13.9474 21.682 13.318C21.0527 12.6887 20.2509 12.2601 19.3779 12.0865C18.505 11.9128 17.6002 12.002 16.778 12.3426C15.9557 12.6831 15.2529 13.2599 14.7584 13.9999C14.2639 14.74 14 15.61 14 16.5C13.9982 17.0914 14.1134 17.6774 14.339 18.2242C14.5645 18.7709 14.8959 19.2677 15.3141 19.6859C15.7323 20.1041 16.2291 20.4355 16.7759 20.661C17.3226 20.8866 17.9086 21.0018 18.5 21Z" stroke="#E0EAFF" stroke-width="1.4" stroke-linecap="round" stroke-linejoin="round"/>
</svg>
